<?xml version="1.0" encoding="UTF-8"?> <svg xmlns="http://www.w3.org/2000/svg" width="93" height="48" viewBox="0 0 93 48" fill="none"><g clip-path="url(#clip0_875_42)"><path d="M43.8384 11.3858C43.9438 11.4794 44.0819 11.5278 44.2227 11.5206C44.3635 11.5133 44.4958 11.4509 44.591 11.3469L47.4232 8.18351C47.5166 8.07777 47.5646 7.93955 47.5568 7.79873C47.5491 7.6579 47.4862 7.52578 47.3818 7.43092L44.1031 4.47325C44.051 4.42582 43.9899 4.3894 43.9234 4.36617C43.8569 4.34295 43.7864 4.33339 43.7161 4.33807C43.6458 4.34276 43.5772 4.36159 43.5144 4.39344C43.4516 4.42529 43.3958 4.4695 43.3505 4.52342L40.5057 7.67927C40.4581 7.73103 40.4213 7.79184 40.3977 7.85808C40.3741 7.92433 40.364 7.99466 40.3681 8.06488C40.3722 8.1351 40.3904 8.20377 40.4215 8.26682C40.4527 8.32987 40.4963 8.38599 40.5496 8.43186L43.8384 11.3858Z" fill="#231F20"></path><path d="M35.6702 42.4714C35.642 42.3341 35.5638 42.2122 35.4506 42.1294C35.3375 42.0466 35.1976 42.0089 35.0581 42.0236L30.6919 42.7486C30.622 42.7594 30.555 42.784 30.4948 42.8211C30.4346 42.8581 30.3824 42.9068 30.3413 42.9643C30.3001 43.0218 30.2709 43.0869 30.2553 43.1558C30.2397 43.2248 30.238 43.2961 30.2504 43.3657L30.9327 47.5564C30.9596 47.6942 31.0383 47.8164 31.1527 47.8979C31.2671 47.9793 31.4083 48.0138 31.5473 47.9942L35.9161 47.2754C35.9853 47.2652 36.0516 47.241 36.1112 47.2044C36.1707 47.1678 36.2223 47.1195 36.2626 47.0624C36.3029 47.0053 36.3313 46.9406 36.3459 46.8722C36.3605 46.8038 36.3611 46.7332 36.3476 46.6646L35.6702 42.4714Z" fill="#231F20"></path><path d="M44.1746 37.0045C44.1326 36.948 44.0793 36.901 44.0181 36.8664C43.9568 36.8319 43.8889 36.8106 43.8189 36.804C43.7489 36.7974 43.6783 36.8055 43.6116 36.828C43.545 36.8504 43.4838 36.8866 43.432 36.9342L40.0027 39.7389C39.9492 39.7825 39.905 39.8363 39.8727 39.8973C39.8404 39.9583 39.8206 40.0251 39.8145 40.0939C39.8084 40.1626 39.8162 40.2319 39.8373 40.2976C39.8584 40.3633 39.8925 40.4241 39.9375 40.4764L42.618 43.7652C42.6617 43.8218 42.7166 43.8689 42.7792 43.9035C42.8418 43.9381 42.9108 43.9595 42.982 43.9664C43.0532 43.9734 43.1251 43.9657 43.1932 43.9438C43.2613 43.9219 43.3242 43.8863 43.3781 43.8392L46.7986 41.0408C46.9045 40.9484 46.971 40.8189 46.9845 40.679C46.9981 40.5391 46.9576 40.3993 46.8713 40.2882L44.1746 37.0045Z" fill="#231F20"></path><path d="M13.7238 13.0738C13.8312 13.1679 13.971 13.2164 14.1136 13.2092C14.2562 13.2019 14.3903 13.1394 14.4876 13.035L17.4303 9.74238C17.4793 9.69139 17.5173 9.63083 17.5419 9.56448C17.5664 9.49813 17.5771 9.42743 17.5731 9.35679C17.5691 9.28615 17.5505 9.2171 17.5186 9.15395C17.4867 9.0908 17.4421 9.03492 17.3876 8.9898L14.2167 6.15756C14.167 6.10819 14.1076 6.06976 14.0421 6.04477C13.9767 6.01977 13.9068 6.00874 13.8368 6.01241C13.7669 6.01607 13.6985 6.03434 13.636 6.06603C13.5736 6.09773 13.5184 6.14215 13.4742 6.19644L10.514 9.49027C10.4676 9.54157 10.4318 9.60156 10.4088 9.66677C10.3858 9.73199 10.3759 9.80112 10.3797 9.87018C10.3836 9.93924 10.4011 10.0068 10.4312 10.0691C10.4614 10.1313 10.5036 10.187 10.5554 10.2328L13.7238 13.0738Z" fill="#231F20"></path><path d="M31.4057 5.21352L35.7356 6.12917C35.8758 6.1581 36.0218 6.13024 36.1415 6.0517C36.2611 5.97316 36.3448 5.85036 36.3741 5.71023L37.2521 1.54717C37.2663 1.4796 37.2671 1.40988 37.2542 1.34203C37.2413 1.27419 37.2151 1.20957 37.1771 1.15194C37.139 1.0943 37.0899 1.04479 37.0326 1.00627C36.9753 0.967747 36.9109 0.940987 36.8432 0.927537L32.502 0.010635C32.4339 -0.00457831 32.3635 -0.00601769 32.2948 0.0064014C32.2262 0.0188205 32.1607 0.0448471 32.1023 0.0829494C32.0438 0.121052 31.9936 0.17046 31.9546 0.228265C31.9155 0.28607 31.8884 0.351105 31.8749 0.41954L30.9968 4.57884C30.9817 4.64738 30.9803 4.71823 30.9928 4.78731C31.0052 4.85639 31.0311 4.92233 31.0691 4.98133C31.1071 5.04033 31.1565 5.09122 31.2142 5.13107C31.272 5.17092 31.3371 5.19894 31.4057 5.21352Z" fill="#231F20"></path><path d="M14.0506 34.0031C14.007 33.9475 13.9526 33.9013 13.8906 33.8673C13.8286 33.8333 13.7604 33.8122 13.6901 33.8052C13.6198 33.7983 13.5488 33.8057 13.4814 33.827C13.414 33.8483 13.3516 33.883 13.298 33.9291L10.0167 36.6259C9.96141 36.6683 9.91517 36.7214 9.88072 36.782C9.84626 36.8425 9.82429 36.9094 9.81611 36.9786C9.80793 37.0478 9.81369 37.118 9.83307 37.1849C9.85244 37.2519 9.88503 37.3143 9.92891 37.3684L12.7348 40.8027C12.8281 40.911 12.96 40.9787 13.1024 40.9913C13.2448 41.004 13.3865 40.9606 13.4974 40.8705L16.7862 38.175C16.8949 38.0843 16.9635 37.9544 16.9771 37.8136C16.9907 37.6727 16.9483 37.5322 16.859 37.4224L14.0506 34.0031Z" fill="#231F20"></path><path d="M25.3913 42.2364L21.2521 40.6735C21.1205 40.6212 20.9735 40.6233 20.8435 40.6793C20.7134 40.7352 20.6109 40.8405 20.5584 40.972L19.0533 44.9595C19.0286 45.0253 19.0173 45.0953 19.0199 45.1655C19.0225 45.2357 19.0389 45.3046 19.0683 45.3684C19.0977 45.4322 19.1394 45.4896 19.1911 45.5371C19.2428 45.5847 19.3034 45.6216 19.3694 45.6456L23.5086 47.2072C23.6433 47.2565 23.7919 47.2511 23.9226 47.1923C24.0534 47.1335 24.156 47.0258 24.2085 46.8924L25.7011 42.9175C25.726 42.8525 25.7377 42.7832 25.7355 42.7136C25.7334 42.644 25.7174 42.5755 25.6886 42.5122C25.6598 42.4488 25.6187 42.3918 25.5676 42.3444C25.5166 42.2971 25.4567 42.2604 25.3913 42.2364Z" fill="#231F20"></path><path d="M7.70524 27.2582L6.2841 26.5445C6.24388 26.5162 6.19739 26.4981 6.14864 26.4918C6.0069 26.4918 5.81499 26.8468 5.32079 27.4426C5.06993 27.7411 4.60834 27.9368 4.06648 27.9368C3.79935 27.9381 3.53458 27.8866 3.28742 27.7852C3.04026 27.6839 2.81556 27.5347 2.62626 27.3462C2.43696 27.1577 2.28678 26.9337 2.18436 26.6869C2.08195 26.4402 2.02931 26.1757 2.02948 25.9086V22.9609C2.02897 22.6934 2.08151 22.4285 2.18406 22.1814C2.28661 21.9344 2.43713 21.7101 2.62692 21.5216C2.8167 21.3331 3.04198 21.1841 3.28973 21.0832C3.53747 20.9824 3.80276 20.9316 4.07024 20.934C4.99216 20.934 5.38852 21.4545 5.93917 22.2071C5.95537 22.2437 5.98167 22.275 6.01499 22.2972C6.04831 22.3194 6.08728 22.3316 6.12731 22.3325C6.16191 22.3343 6.19642 22.3274 6.22766 22.3124L7.68392 21.5862C7.72359 21.5746 7.7582 21.55 7.78211 21.5163C7.80602 21.4826 7.81783 21.4418 7.81562 21.4006C7.81562 20.934 7.18846 20.0534 5.98683 19.5191C5.38462 19.249 4.73014 19.1154 4.07024 19.1277C1.60426 19.1277 0 20.6693 0 22.9609V25.9086C0 28.2165 1.60301 29.7492 4.07024 29.7492C5.25808 29.7492 6.21637 29.4319 6.8937 28.7997C7.57103 28.1676 7.8382 27.5743 7.8382 27.42C7.83675 27.3822 7.82297 27.3459 7.79896 27.3167C7.77495 27.2875 7.74203 27.2669 7.70524 27.2582Z" fill="#231F20"></path><path d="M11.5087 29.5101C11.5384 29.5166 11.5692 29.5157 11.5984 29.5074C11.6276 29.4991 11.6543 29.4837 11.6762 29.4626C11.698 29.4415 11.7143 29.4154 11.7236 29.3865C11.7329 29.3575 11.7349 29.3268 11.7295 29.2969V15.5145C11.7295 15.3515 11.6617 15.275 11.5087 15.275H9.9195C9.88773 15.271 9.85549 15.2747 9.8254 15.2856C9.79531 15.2965 9.76822 15.3143 9.74634 15.3377C9.72446 15.361 9.7084 15.3892 9.69947 15.42C9.69054 15.4507 9.689 15.4831 9.69497 15.5145V29.2969C9.69497 29.4537 9.76772 29.5101 9.9195 29.5101H11.51H11.5087Z" fill="#231F20"></path><path d="M22.0953 25.9068V22.9592C22.0953 20.6826 20.486 19.126 18.0351 19.126C15.5603 19.126 13.9648 20.6675 13.9648 22.9592V25.9068C13.9648 28.2147 15.5603 29.7475 18.0351 29.7475C20.486 29.7475 22.0953 28.2147 22.0953 25.9068ZM20.0646 25.9068C20.0646 26.4467 19.8501 26.9645 19.4683 27.3463C19.0865 27.7281 18.5687 27.9425 18.0288 27.9425C17.4889 27.9425 16.9711 27.7281 16.5893 27.3463C16.2075 26.9645 15.9931 26.4467 15.9931 25.9068V22.9592C15.9931 22.4192 16.2075 21.9014 16.5893 21.5197C16.9711 21.1379 17.4889 20.9234 18.0288 20.9234C18.5687 20.9234 19.0865 21.1379 19.4683 21.5197C19.8501 21.9014 20.0646 22.4192 20.0646 22.9592V25.9068Z" fill="#231F20"></path><path d="M32.1988 27.4131C32.1917 27.3771 32.1751 27.3436 32.1506 27.3163C32.1261 27.2889 32.0946 27.2686 32.0596 27.2576L30.6422 26.5439C30.6021 26.5146 30.5549 26.4965 30.5055 26.4912C30.365 26.4912 30.1693 26.8462 29.6576 27.442C29.4193 27.7405 28.9715 27.9362 28.4208 27.9362C28.1544 27.9368 27.8904 27.8848 27.6441 27.7831C27.3978 27.6814 27.174 27.532 26.9856 27.3435C26.7973 27.155 26.648 26.9312 26.5465 26.6848C26.4449 26.4384 26.393 26.1744 26.3939 25.908V22.9603C26.3927 22.6943 26.4441 22.4307 26.5452 22.1847C26.6463 21.9387 26.795 21.715 26.9828 21.5267C27.1705 21.3383 27.3937 21.1889 27.6394 21.0871C27.8852 20.9853 28.1486 20.933 28.4146 20.9334C29.339 20.9334 29.7492 21.4539 30.296 22.2065C30.3086 22.2438 30.3328 22.2761 30.3651 22.2987C30.3974 22.3213 30.436 22.3329 30.4754 22.3319C30.5131 22.3325 30.5506 22.3257 30.5858 22.3118L32.0358 21.5856C32.0764 21.5747 32.1122 21.5504 32.1374 21.5168C32.1626 21.4831 32.1759 21.442 32.175 21.4C32.175 20.9334 31.5478 20.0528 30.3512 19.5185C29.7424 19.2468 29.0811 19.1127 28.4146 19.1259C25.9486 19.1259 24.3594 20.6674 24.3594 22.9591V25.9067C24.3594 28.2146 25.9486 29.7474 28.4146 29.7474C29.62 29.7474 30.5732 29.4301 31.2418 28.7979C31.9103 28.1657 32.1988 27.5724 32.1988 27.4131Z" fill="#231F20"></path><path d="M40.3851 29.5093H42.3719C42.5362 29.5093 42.6228 29.429 42.6228 29.3249C42.6114 29.2762 42.5963 29.2284 42.5776 29.1819L38.7344 22.9806C38.7204 22.9653 38.7097 22.9472 38.703 22.9276C38.6963 22.908 38.6938 22.8871 38.6955 22.8665C38.7129 22.8116 38.7406 22.7605 38.777 22.716L41.7121 19.7319C41.7422 19.709 41.7665 19.6794 41.783 19.6454C41.7996 19.6114 41.8079 19.5741 41.8075 19.5363C41.8075 19.4209 41.7121 19.3456 41.5566 19.3456H39.6375L39.4795 19.4209L36.4691 22.7134C36.4487 22.7449 36.42 22.7702 36.3861 22.7863C36.3522 22.8025 36.3145 22.809 36.2772 22.805C36.2476 22.8021 36.2189 22.7932 36.1928 22.7789C36.1667 22.7645 36.1438 22.745 36.1255 22.7216C36.1072 22.6981 36.0939 22.6712 36.0863 22.6424C36.0788 22.6136 36.0771 22.5836 36.0815 22.5541V15.5137C36.0815 15.3506 36.0176 15.2741 35.8595 15.2741H34.2866C34.2543 15.2689 34.2211 15.2715 34.1901 15.2818C34.159 15.2921 34.1308 15.3098 34.108 15.3333C34.0852 15.3568 34.0685 15.3855 34.0592 15.4169C34.0498 15.4484 34.0483 15.4815 34.0546 15.5137V29.2961C34.0546 29.4529 34.1198 29.5093 34.2866 29.5093H35.8595C36.0176 29.5093 36.0815 29.4529 36.0815 29.2961V25.5331L36.9382 24.6652C36.9585 24.6355 36.9859 24.6113 37.0178 24.5949C37.0498 24.5784 37.0854 24.5703 37.1214 24.5711C37.1622 24.5756 37.2012 24.5901 37.2351 24.6133C37.269 24.6365 37.2967 24.6677 37.3158 24.704L40.1769 29.4064L40.3851 29.5093Z" fill="#231F20"></path><path d="M66.5685 20.8418C66.0291 20.8464 65.5133 21.0638 65.1333 21.4466C64.7533 21.8295 64.5397 22.3469 64.5391 22.8863V25.8126C64.5522 26.343 64.7722 26.8472 65.1519 27.2176C65.5317 27.588 66.0412 27.7954 66.5717 27.7954C67.1022 27.7954 67.6117 27.588 67.9914 27.2176C68.3712 26.8472 68.5911 26.343 68.6043 25.8126V22.8863C68.6053 22.3453 68.3914 21.826 68.0097 21.4426C67.6279 21.0592 67.1096 20.8431 66.5685 20.8418Z" fill="#231F20"></path><path d="M91.9187 17.7749C88.4982 5.01728 75.3781 -2.54497 62.6242 0.868015C49.8704 4.281 42.2893 17.4036 45.7262 30.1499C49.1241 42.9088 62.248 50.4898 74.993 47.0681C87.7682 43.6476 95.338 30.5337 91.9187 17.7749ZM61.3724 19.551L58.4562 29.2732C58.4447 29.3204 58.4169 29.3621 58.3776 29.3908C58.3384 29.4195 58.2902 29.4334 58.2417 29.4299H56.9573C56.9112 29.424 56.8674 29.4065 56.8299 29.3791C56.7924 29.3517 56.7624 29.3152 56.7428 29.2732L54.7973 21.4964L52.8431 29.2732C52.8314 29.3238 52.8009 29.368 52.7579 29.3971C52.7149 29.4262 52.6624 29.4379 52.6111 29.4299H51.2991C51.2736 29.4354 51.2474 29.4356 51.2219 29.4306C51.1964 29.4256 51.1722 29.4154 51.1507 29.4007C51.1292 29.3861 51.111 29.3672 51.097 29.3453C51.0831 29.3233 51.0737 29.2988 51.0695 29.2732L48.1971 19.551C48.1971 19.5171 48.1821 19.4908 48.1821 19.4695C48.1823 19.4384 48.1893 19.4079 48.2026 19.3798C48.2159 19.3518 48.2352 19.3271 48.2592 19.3074C48.2831 19.2876 48.3111 19.2734 48.3411 19.2656C48.3711 19.2579 48.4025 19.2568 48.433 19.2625H50.0849C50.1489 19.2625 50.2166 19.2989 50.3119 19.4293L51.9977 26.6692L53.8165 19.4281C53.9168 19.3026 53.967 19.2612 54.0322 19.2612H55.5637C55.5893 19.2564 55.6155 19.257 55.6408 19.263C55.6661 19.2689 55.6899 19.2801 55.7106 19.2958C55.7313 19.3116 55.7484 19.3315 55.7609 19.3542C55.7735 19.377 55.781 19.4022 55.7832 19.4281L57.5857 26.6692L59.2539 19.4281C59.2725 19.3748 59.3085 19.3294 59.356 19.2992C59.4036 19.2689 59.46 19.2555 59.5161 19.2612H61.1542C61.306 19.2612 61.4051 19.3352 61.4051 19.4682C61.3922 19.495 61.3813 19.5226 61.3724 19.551ZM70.6431 25.8125C70.6431 28.1179 69.0325 29.6645 66.5703 29.6645C64.1081 29.6645 62.5088 28.1192 62.5088 25.8125V22.8862C62.5088 20.5783 64.1119 19.0342 66.5703 19.0342C69.0288 19.0342 70.6431 20.6008 70.6431 22.8862V25.8125ZM78.2128 21.2493C78.2128 21.3823 78.1614 21.4776 78.0711 21.4776C77.8855 21.4776 77.5343 21.3108 76.9698 21.3108C75.7218 21.3108 74.9416 22.0834 74.9416 23.3327V29.2117C74.9464 29.2421 74.9438 29.2732 74.934 29.3024C74.9242 29.3316 74.9075 29.3581 74.8854 29.3795C74.8632 29.4009 74.8363 29.4166 74.8068 29.4254C74.7773 29.4342 74.7461 29.4358 74.7158 29.4299H73.1203C73.0908 29.4349 73.0604 29.4327 73.0319 29.4234C73.0034 29.4141 72.9775 29.3981 72.9566 29.3766C72.9356 29.3552 72.9202 29.329 72.9116 29.3003C72.9029 29.2715 72.9014 29.2411 72.9071 29.2117V19.4908C72.9008 19.4607 72.9018 19.4296 72.91 19.4001C72.9183 19.3705 72.9334 19.3433 72.9543 19.3208C72.9752 19.2984 73.0012 19.2812 73.0301 19.2708C73.059 19.2605 73.0899 19.2572 73.1203 19.2612H74.4875C74.5184 19.2568 74.5499 19.2597 74.5794 19.2698C74.6089 19.2799 74.6356 19.2968 74.6572 19.3192C74.6789 19.3416 74.695 19.3689 74.7041 19.3987C74.7131 19.4285 74.715 19.4601 74.7095 19.4908V20.2057C74.7095 20.3939 74.8024 20.4842 74.914 20.4842C75.1423 20.4842 75.8058 19.2638 77.0463 19.2638C77.9055 19.2638 78.2103 19.2926 78.2103 19.5535V21.2518L78.2128 21.2493ZM88.1219 29.4299H86.1363L85.9381 29.3108L83.0695 24.6197C83.0538 24.5827 83.0281 24.5508 82.9954 24.5275C82.9626 24.5043 82.924 24.4906 82.8839 24.488C82.8508 24.4875 82.818 24.4947 82.7882 24.5091C82.7584 24.5234 82.7323 24.5445 82.7121 24.5707L81.8503 25.4588V29.2117C81.8503 29.3635 81.7826 29.4299 81.6133 29.4299H80.0391C80.009 29.4356 79.978 29.4339 79.9487 29.425C79.9194 29.4161 79.8926 29.4003 79.8707 29.3789C79.8488 29.3575 79.8324 29.3311 79.8228 29.302C79.8133 29.2729 79.8109 29.2419 79.8159 29.2117V15.4256C79.8099 15.3948 79.8115 15.363 79.8205 15.333C79.8296 15.303 79.8458 15.2756 79.8678 15.2533C79.8897 15.2309 79.9168 15.2143 79.9467 15.2047C79.9765 15.1952 80.0083 15.1931 80.0391 15.1985H81.6133C81.7839 15.1985 81.8503 15.2637 81.8503 15.4256V22.4735C81.8503 22.6228 81.9294 22.7244 82.0423 22.7244C82.0785 22.7272 82.1147 22.7198 82.1469 22.7029C82.1791 22.686 82.2058 22.6604 82.2241 22.6291L85.2345 19.3415L85.4013 19.2675H87.3191C87.4722 19.2675 87.57 19.3415 87.57 19.4557C87.5688 19.4937 87.5593 19.531 87.5422 19.565C87.5251 19.5991 87.5007 19.6289 87.4709 19.6526L84.5346 22.6291C84.4871 22.6739 84.4543 22.7321 84.4405 22.7959C84.4479 22.8358 84.4615 22.8743 84.4806 22.91L88.3276 29.0988C88.3496 29.1503 88.3656 29.2042 88.3753 29.2594C88.3803 29.3434 88.285 29.4299 88.1219 29.4299Z" fill="#231F20"></path><path d="M21.3635 6.53422C21.416 6.66572 21.5185 6.77103 21.6485 6.827C21.7786 6.88297 21.9256 6.88504 22.0571 6.83275L26.1964 5.26987C26.2617 5.24589 26.3216 5.20916 26.3727 5.16182C26.4237 5.11448 26.4649 5.05747 26.4937 4.99411C26.5225 4.93074 26.5384 4.86228 26.5406 4.7927C26.5427 4.72312 26.531 4.6538 26.5062 4.58878L25.0135 0.613867C24.961 0.480429 24.8584 0.372806 24.7277 0.313981C24.5969 0.255156 24.4483 0.249792 24.3136 0.299035L20.1744 1.86065C20.1083 1.88455 20.0476 1.92134 19.9959 1.96888C19.9441 2.01643 19.9023 2.07378 19.8729 2.13762C19.8435 2.20145 19.8271 2.27049 19.8246 2.34073C19.8221 2.41096 19.8335 2.481 19.8583 2.54676L21.3635 6.53422Z" fill="#231F20"></path><path d="M86.1484 43.7927H86.96V45.9626H87.2848V43.7927H88.0989V43.5029H86.1484V43.7927Z" fill="#231F20"></path><path d="M89.7388 45.2141C89.6794 45.3872 89.6376 45.5185 89.6133 45.6079C89.5891 45.5243 89.5498 45.4031 89.4954 45.2442L88.9134 43.502H88.418V45.9617H88.7315V43.867L89.4427 45.9617H89.7362L90.4512 43.9033V45.9617H90.7648V43.5032H90.327L89.7388 45.2141Z" fill="#231F20"></path></g><defs><clipPath id="clip0_875_42"><rect width="92.7375" height="48" fill="white"></rect></clipPath></defs></svg> 